<svg viewBox="0 0 13 14" fill="none" xmlns="http://www.w3.org/2000/svg">
<path d="M6.41099 0.914954C6.44815 0.842389 6.55185 0.842389 6.58901 0.914954L8.42922 4.50884C8.44375 4.53721 8.47092 4.55695 8.50239 4.562L12.489 5.20157C12.5695 5.21449 12.6016 5.31312 12.544 5.37088L9.69471 8.2316C9.67222 8.25418 9.66184 8.28612 9.66677 8.31761L10.2904 12.3068C10.303 12.3873 10.2191 12.4483 10.1464 12.4114L6.54522 10.5855C6.5168 10.5711 6.4832 10.5711 6.45478 10.5855L2.85358 12.4114C2.78087 12.4483 2.69697 12.3873 2.70956 12.3068L3.33323 8.31761C3.33816 8.28612 3.32778 8.25418 3.30529 8.2316L0.455954 5.37088C0.398423 5.31312 0.43047 5.21449 0.510965 5.20157L4.49761 4.562C4.52908 4.55695 4.55625 4.53721 4.57078 4.50884L6.41099 0.914954Z" fill="#E9A426"/>
</svg>
